<?xml version="1.0" standalone="no"?>
<!DOCTYPE svg PUBLIC "-//W3C//DTD SVG 20010904//EN" "http://www.w3.org/TR/2001/REC-SVG-20010904/DTD/svg10.dtd">
<svg version="1.0" xmlns="http://www.w3.org/2000/svg"
    width="100" height="" viewBox="0 0 738.000000 512.000000"
    preserveAspectRatio="xMidYMid meet">

    <g transform="translate(0.000000,512.000000) scale(0.100000,-0.100000)"
        fill="#3C096C" stroke="none">
        <path
            d="M1850 5114 c-149 -19 -261 -38 -346 -60 -269 -70 -535 -204 -754
-381 -89 -72 -257 -243 -321 -328 -310 -405 -457 -914 -409 -1406 59 -593 355
-1104 841 -1451 118 -85 380 -217 521 -262 239 -77 413 -101 691 -93 164 4
225 10 327 32 302 63 572 184 802 358 45 34 87 66 95 72 10 7 53 -30 177 -154
l164 -164 -20 -51 c-14 -34 -22 -83 -26 -147 -5 -113 15 -199 69 -284 39 -63
637 -665 704 -709 250 -165 580 -76 712 192 36 73 38 81 42 195 3 103 0 126
-19 180 -13 34 -38 85 -56 112 -45 68 -646 665 -709 704 -85 54 -171 74 -284
69 -64 -4 -113 -12 -147 -26 l-51 -20 -164 164 c-124 124 -161 167 -154 177 6
8 38 50 72 95 174 230 295 501 358 802 33 154 45 467 26 627 -44 352 -174 678
-384 960 -310 416 -769 693 -1287 778 -93 15 -400 28 -470 19z m-569 -1381
c72 -45 71 -36 67 -523 l-3 -435 -27 -58 c-112 -238 -424 -300 -616 -122 -129
119 -169 305 -85 390 34 33 63 45 111 45 69 0 142 -68 142 -132 0 -40 21 -78
51 -94 40 -20 63 -17 98 12 l31 26 0 304 0 304 -82 0 c-106 0 -155 14 -194 56
-43 45 -52 98 -26 157 38 85 76 97 317 94 167 -2 183 -4 216 -24z m870 -21
c122 -59 211 -174 239 -309 7 -34 10 -149 8 -316 -4 -295 -9 -321 -86 -422
-197 -259 -591 -220 -735 74 l-32 66 0 315 0 315 32 67 c53 113 137 187 258
231 38 13 73 17 150 14 88 -3 108 -7 166 -35z m1061 6 c79 -37 152 -108 190
-185 56 -115 49 -279 -16 -374 l-22 -32 35 -70 c35 -67 36 -74 36 -176 0 -96
-3 -112 -28 -162 -43 -88 -98 -143 -185 -186 l-76 -38 -223 -3 c-214 -4 -224
-3 -261 18 -22 12 -49 39 -61 60 -21 37 -21 47 -21 551 0 574 -2 559 70 607
34 23 38 23 270 20 231 -3 236 -3 292 -30z" />
        <path
            d="M1899 3433 c-56 -34 -59 -50 -59 -310 0 -221 2 -240 20 -271 21 -34
71 -62 111 -62 38 0 85 30 107 69 21 36 22 52 22 260 0 248 -6 276 -62 311
-40 24 -103 26 -139 3z" />
        <path
            d="M2880 3359 l0 -91 106 4 c102 3 107 4 130 31 32 38 32 90 -1 122 -23
23 -31 25 -130 25 l-105 0 0 -91z" />
        <path
            d="M2880 2880 l0 -90 101 0 c98 0 101 1 130 29 38 39 40 88 3 125 -25
25 -32 26 -130 26 l-104 0 0 -90z" />
        <path
            d="M5915 4285 c-166 -36 -334 -150 -482 -328 -109 -131 -178 -284 -249
-551 -60 -226 -60 -225 -144 -226 -92 0 -141 -34 -161 -112 -11 -41 -11 -52 3
-82 14 -28 28 -38 75 -55 89 -32 88 -31 91 -101 3 -67 -33 -301 -73 -468 -31
-129 -32 -177 -2 -232 39 -74 119 -100 184 -60 57 34 78 101 108 350 42 344
67 489 86 501 21 13 159 39 315 59 177 23 191 30 219 105 24 62 17 123 -18
149 -38 28 -134 32 -270 12 -59 -9 -127 -16 -152 -16 l-44 0 26 92 c56 207
146 399 235 503 106 125 272 231 379 242 49 5 58 3 77 -17 12 -13 31 -52 42
-86 25 -75 65 -114 114 -114 100 0 174 143 132 254 -20 53 -92 127 -149 155
-85 41 -225 52 -342 26z" />
        <path
            d="M4583 4134 c-55 -20 -108 -80 -127 -145 -20 -66 -20 -92 -1 -129 36
-70 94 -85 188 -50 94 35 147 105 147 195 0 33 -24 75 -43 75 -7 0 -27 16 -46
35 -37 38 -55 41 -118 19z" />
        <path
            d="M6299 3589 c-51 -30 -69 -67 -79 -162 -5 -45 -18 -118 -29 -162 -58
-239 -74 -346 -75 -515 -1 -160 0 -166 26 -215 63 -119 148 -181 262 -192 51
-4 71 -2 110 16 79 34 174 108 289 223 117 118 117 118 69 -17 -82 -232 -231
-437 -442 -608 -92 -75 -244 -148 -365 -177 -69 -17 -96 -29 -117 -51 -50 -53
-47 -148 8 -203 32 -31 78 -34 169 -11 230 59 632 358 781 580 104 155 141
240 286 660 154 449 180 539 186 657 l4 98 -34 34 c-38 38 -87 52 -143 42 -59
-11 -81 -41 -110 -149 -55 -208 -134 -392 -220 -512 -60 -84 -186 -203 -278
-263 -119 -78 -177 -80 -211 -8 -39 82 -31 164 45 471 21 88 50 187 64 220 29
71 31 135 6 190 -25 55 -41 66 -108 71 -47 4 -65 1 -94 -17z" />
        <path
            d="M4380 3462 c-19 -10 -43 -34 -52 -53 -10 -19 -47 -146 -83 -284 -36
-137 -99 -376 -141 -530 -85 -311 -95 -382 -58 -431 31 -42 67 -65 110 -71 54
-7 89 22 108 90 104 370 316 1197 314 1220 -6 65 -124 100 -198 59z" />
    </g>
</svg>